<?xml version="1.0" encoding="UTF-8"?>
<!-- Generated by Pixelmator Pro 3.6.12 -->
<svg width="288" height="288" viewBox="0 0 288 288" xmlns="http://www.w3.org/2000/svg">
    <path id="Path" fill="#ffffff" fill-rule="evenodd" stroke="none" d="M 288.001282 14.341614 L 273.660004 0.002075 L 14.340668 0.002075 L -0.000546 14.341614 L -0.000546 273.661255 L 14.340668 288.000793 L 273.660004 288.000793 L 288.001282 273.661255 L 288.001282 14.341614 Z"/>
    <path id="path1" fill="#344457" fill-rule="evenodd" stroke="none" d="M 288.001282 14.341614 L 288.001282 273.661255 L 273.660004 288.000793 L 14.340668 288.000793 L -0.000546 273.661255 L -0.000546 14.341614 L 14.340668 0.002075 L 273.660004 0.002075 L 288.001282 14.341614 Z M 285.918121 15.205597 L 272.794861 2.083282 L 15.205858 2.083282 L 2.08259 15.205597 L 2.08259 272.797241 L 15.205858 285.919525 L 272.794861 285.919525 L 285.918121 272.797241 L 285.918121 15.205597 Z"/>
    <path id="path2" fill="#bcae9b" fill-rule="evenodd" stroke="none" d="M 288.001282 14.341614 L 288.001282 273.661255 L 273.660004 288.000793 L 14.340668 288.000793 L -0.000546 273.661255 L -0.000546 14.341614 L 14.340668 0.002075 L 273.660004 0.002075 L 288.001282 14.341614 Z M 286.959686 14.77124 L 273.228607 1.042694 L 14.772072 1.042694 L 1.041013 14.77124 L 1.041013 273.226837 L 14.772072 286.960144 L 273.228607 286.960144 L 286.959686 273.226837 L 286.959686 14.77124 Z"/>
    <path id="path3" fill="#344457" fill-rule="evenodd" stroke="none" d="M 288.001282 14.341614 L 288.001282 273.661255 L 273.660004 288.000793 L 14.340668 288.000793 L -0.000546 273.661255 L -0.000546 14.341614 L 14.340668 0.002075 L 273.660004 0.002075 L 288.001282 14.341614 Z M 287.584167 14.513458 L 273.486023 0.417358 L 14.514655 0.417358 L 0.416565 14.513458 L 0.416565 273.484619 L 14.514655 287.58548 L 273.486023 287.58548 L 287.584167 273.484619 L 287.584167 14.513458 Z"/>
    <path id="path4" fill="#344457" fill-rule="evenodd" stroke="none" d="M 282.091492 16.719788 L 269.593323 4.220093 L 16.717415 4.220093 L 4.215914 16.719788 L 4.215914 75.525101 L 16.717415 88.024796 L 269.593323 88.024796 L 282.091492 75.525101 L 282.091492 16.719788 Z"/>
    <text id="stat" style="
        text-anchor: middle;
        font-family: Teuton Mager, Teuton, Roboto, sans-serif; 
        text-transform:uppercase;" x="144" y="64" font-size="58" font-weight="700" fill="#ffffff"
    >
    Defense
    </text>
</svg>
