<?xml version="1.0" encoding="UTF-8"?>
<!-- Generated by Pixelmator Pro 3.6.12 -->
<svg width="288" height="288" viewBox="0 0 288 288" xmlns="http://www.w3.org/2000/svg">
    <path id="Path" fill="#51644b" fill-rule="evenodd" stroke="#000000" stroke-width="1.345107" stroke-opacity="0.51" stroke-linecap="round" stroke-linejoin="round" d="M 281.52887 203.958145 L 264.337463 186.791016 L 18.889479 186.791016 L 1.698089 203.958145 L 1.698089 269.972778 L 18.889479 287.143311 L 264.337463 287.143311 L 281.52887 269.972778 L 281.52887 203.958145 Z"/>
    <path id="path1" fill="#51644b" fill-rule="evenodd" stroke="#000000" stroke-width="1.39642" stroke-opacity="0.51" stroke-linecap="round" stroke-linejoin="round" d="M 283.800415 20.925232 L 263.544098 0.696381 L 24.225954 0.696381 L 3.969647 20.925232 L 3.969647 38.005768 L 24.225954 58.236557 L 263.544098 58.236557 L 283.800415 38.005768 L 283.800415 20.925232 Z"/>
    <path id="path2" fill="#51644b" fill-rule="evenodd" stroke="#000000" stroke-width="1.39642" stroke-opacity="0.51" stroke-linecap="round" stroke-linejoin="round" d="M 283.800415 155.189529 L 263.544098 134.960678 L 24.225954 134.960678 L 3.969647 155.189529 L 3.969647 172.27005 L 24.225954 192.500854 L 263.544098 192.500854 L 283.800415 172.27005 L 283.800415 155.189529 Z"/>
    <path id="path3" fill="#51644b" fill-rule="evenodd" stroke="#000000" stroke-width="1.39642" stroke-opacity="0.51" stroke-linecap="round" stroke-linejoin="round" d="M 283.800415 88.057373 L 263.544098 67.828537 L 24.225954 67.828537 L 3.969647 88.057373 L 3.969647 105.137909 L 24.225954 125.368713 L 263.544098 125.368713 L 283.800415 105.137909 L 283.800415 88.057373 Z"/>
    <path id="path4" fill="#ffffff" fill-rule="evenodd" stroke="none" d="M 260.069244 132.220032 C 260.069244 66.889908 206.962662 13.85022 141.553162 13.85022 C 76.139862 13.85022 23.037083 66.889908 23.037083 132.220032 C 23.037083 197.553772 76.139862 250.59346 141.553162 250.59346 C 206.962662 250.59346 260.069244 197.553772 260.069244 132.220032 Z"/>
    <path id="path5" fill="#000000" fill-rule="evenodd" stroke="none" d="M 260.069244 132.220032 C 260.069244 197.553772 206.962662 250.59346 141.553162 250.59346 C 76.139862 250.59346 23.037083 197.553772 23.037083 132.220032 C 23.037083 66.889908 76.139862 13.85022 141.553162 13.85022 C 206.962662 13.85022 260.069244 66.889908 260.069244 132.220032 Z M 250.28833 132.220032 C 250.28833 72.280502 201.565887 23.619385 141.553162 23.619385 C 81.536613 23.619385 32.81419 72.280502 32.81419 132.220032 C 32.81419 192.159607 81.536613 240.82428 141.553162 240.82428 C 201.565887 240.82428 250.28833 192.159607 250.28833 132.220032 Z"/>
    <path id="path6" fill="#ffffff" fill-rule="evenodd" stroke="none" d="M 260.069244 132.220032 C 260.069244 197.553772 206.962662 250.59346 141.553162 250.59346 C 76.139862 250.59346 23.037083 197.553772 23.037083 132.220032 C 23.037083 66.889908 76.139862 13.85022 141.553162 13.85022 C 206.962662 13.85022 260.069244 66.889908 260.069244 132.220032 Z M 251.684006 132.220032 C 251.684006 71.509933 202.335785 22.223816 141.553162 22.223816 C 80.766739 22.223816 31.418543 71.509933 31.418543 132.220032 C 31.418543 192.930176 80.766739 242.219894 141.553162 242.219894 C 202.335785 242.219894 251.684006 192.930176 251.684006 132.220032 Z"/>
    <path id="path7" fill="none" stroke="#000000" stroke-width="12.557385" stroke-linejoin="round" d="M 260.069244 132.220032 C 260.069244 66.889908 206.962662 13.85022 141.553162 13.85022 C 76.139862 13.85022 23.037083 66.889908 23.037083 132.220032 C 23.037083 197.553772 76.139862 250.59346 141.553162 250.59346 C 206.962662 250.59346 260.069244 197.553772 260.069244 132.220032 Z"/>
    <path id="path8" fill="none" stroke="#ffffff" stroke-width="7.673957" stroke-linejoin="round" d="M 260.069244 132.220032 C 260.069244 66.889908 206.962662 13.85022 141.553162 13.85022 C 76.139862 13.85022 23.037083 66.889908 23.037083 132.220032 C 23.037083 197.553772 76.139862 250.59346 141.553162 250.59346 C 206.962662 250.59346 260.069244 197.553772 260.069244 132.220032 Z"/>
    <path id="path9" fill="#000000" fill-rule="evenodd" stroke="none" d="M 267.055054 132.220032 C 267.055054 201.403198 210.819641 257.567841 141.553162 257.567841 C 72.286674 257.567841 16.051273 201.403198 16.051273 132.220032 C 16.051273 63.040466 72.286674 6.872253 141.553162 6.872253 C 210.819641 6.872253 267.055054 63.040466 267.055054 132.220032 Z M 260.069244 132.220032 C 260.069244 66.889908 206.962662 13.85022 141.553162 13.85022 C 76.139862 13.85022 23.037083 66.889908 23.037083 132.220032 C 23.037083 197.553772 76.139862 250.59346 141.553162 250.59346 C 206.962662 250.59346 260.069244 197.553772 260.069244 132.220032 Z"/>
    <path id="path10" fill="#741314" fill-rule="evenodd" stroke="#000000" stroke-width="1.372229" stroke-opacity="0.51" stroke-linecap="round" stroke-linejoin="round" d="M 273.433258 214.574554 L 260.469208 201.629883 L 18.730856 201.629883 L 5.768727 214.574554 L 5.768727 272.401337 L 18.730856 285.348877 L 260.469208 285.348877 L 273.433258 272.401337 L 273.433258 214.574554 Z"/>
    <text id="stat" style="
        text-anchor: middle;
        font-family: Teuton Mager, Teuton, Roboto, sans-serif; 
        text-transform:uppercase;" x="144" y="266" font-size="64" font-weight="700" fill="#ffffff"
    >
    Intellect
    </text>
</svg>
